<svg width="24" height="24" viewBox="0 0 24 24" fill="none" xmlns="http://www.w3.org/2000/svg">
<path d="M2.91964 5.83929C2.50112 5.78348 2.2779 5.54632 2.25 5.12779C2.2779 4.76507 2.50112 4.5558 2.91964 4.5H20.3304C20.7489 4.5558 20.9721 4.79297 21 5.2115C20.9721 5.57422 20.7489 5.78348 20.3304 5.83929H2.91964ZM14.9732 11.1964C15.3917 11.2243 15.615 11.4615 15.6429 11.9079C15.615 12.2706 15.3917 12.4799 14.9732 12.5357H2.91964C2.50112 12.5078 2.2779 12.2706 2.25 11.8242C2.2779 11.4615 2.50112 11.2522 2.91964 11.1964H14.9732ZM9.61607 17.8929C10.0346 17.9487 10.2578 18.1858 10.2857 18.6044C10.2578 18.9671 10.0346 19.1763 9.61607 19.2321H2.91964C2.50112 19.1763 2.2779 18.9392 2.25 18.5206C2.2779 18.1579 2.50112 17.9487 2.91964 17.8929H9.61607Z" fill="#303133"/>
</svg>
