<svg width="18" height="18" viewBox="0 0 18 18" fill="none" xmlns="http://www.w3.org/2000/svg">
<path d="M9 0C4.1211 0 0 4.1211 0 9C0 13.8789 4.1211 18 9 18C13.8789 18 18 13.8789 18 9C18 4.1211 13.8789 0 9 0ZM9 4.5C10.5543 4.5 11.7 5.6448 11.7 7.2C11.7 8.7552 10.5543 9.9 9 9.9C7.4466 9.9 6.3 8.7552 6.3 7.2C6.3 5.6448 7.4466 4.5 9 4.5ZM4.4046 13.2948C5.2119 12.1068 6.5583 11.3148 8.1 11.3148H9.9C11.4426 11.3148 12.7881 12.1068 13.5954 13.2948C12.4452 14.526 10.8135 15.3 9 15.3C7.1865 15.3 5.5548 14.526 4.4046 13.2948Z" fill="white"/>
</svg>
